#Comment line ignore any data following # character 
#Hierarchical Translation and Rotation (.htr) file 
[Header]	
#Header keywords are followed by a single value 
FileType HTR		#Single word string
DataType HTRS		#Translation followed by rotation and scale data
FileVersion 1		#integer
NumSegments 64		#integer
NumFrames 3		#integer
DataFrameRate 30		#integer, data frame rate in this file
EulerRotationOrder ZYX
CalibrationUnits mm
RotationUnits Degrees
GlobalAxisofGravity Y
BoneLengthAxis Y
ScaleFactor 1.00
[SegmentNames&Hierarchy]
#CHILD	PARENT
Pinger_Root GLOBAL
Pelvis Pinger_Root
L_Hip Pelvis
R_Hip Pelvis
Rear_Leg01 Pelvis
Spine1 Pelvis
L_Leg01 L_Hip
L_Leg02 L_Leg01
L_Leg03 L_Leg02
L_Foot L_Leg03
L_Toe1_01 L_Foot
L_Toe2_01 L_Foot
L_Toe3_01 L_Foot
planeAlignerLeft L_Foot
L_Toe1_02 L_Toe1_01
L_Toe1_03 L_Toe1_02
L_Toe2_02 L_Toe2_01
L_Toe2_03 L_Toe2_02
L_Toe3_02 L_Toe3_01
L_Toe3_03 L_Toe3_02
planeLockWeightLeft planeAlignerLeft
R_Leg01 R_Hip
R_Leg02 R_Leg01
R_Leg03 R_Leg02
R_Foot R_Leg03
planeAlignerRight R_Foot
R_Toe1_01 R_Foot
R_Toe2_01 R_Foot
R_Toe3_01 R_Foot
planeLockWeightRight planeAlignerRight
R_Toe1_02 R_Toe1_01
R_Toe1_03 R_Toe1_02
R_Toe2_02 R_Toe2_01
R_Toe2_03 R_Toe2_02
R_Toe3_02 R_Toe3_01
R_Toe3_03 R_Toe3_02
Rear_Leg02 Rear_Leg01
Rear_Leg03 Rear_Leg02
Rear_Leg04 Rear_Leg03
Rear_Foot Rear_Leg04
planeAlignerCenter Rear_Foot
Rear_Toe1_01 Rear_Foot
Rear_Toe2_01 Rear_Foot
Rear_Toe3_01 Rear_Foot
planeLockWeightCenter planeAlignerCenter
Rear_Toe1_02 Rear_Toe1_01
Rear_Toe1_03 Rear_Toe1_02
Rear_Toe2_02 Rear_Toe2_01
Rear_Toe2_03 Rear_Toe2_02
Rear_Toe3_02 Rear_Toe3_01
Rear_Toe3_03 Rear_Toe3_02
Back_Bone Spine1
Head Spine1
Motor_Bone Back_Bone
Ping_Mechanism Back_Bone
BN_LookIK Head
bottomMouth Head
L_Mouth01 Head
L_mouthFront Head
mouthGun Head
R_Mouth01 Head
R_mouthFront Head
TopMouth Head
weapon_bone Head
[BasePosition]
#SegmentName Tx, Ty, Tz, Rx, Ry, Rz, BoneLength
Pinger_Root 0.000000 0.000000 0.000000 -90.000000 0.000000 0.000000 10.000000 
Pelvis 0.000000 0.000000 0.000000 0.000000 0.000000 0.000000 10.000000 
L_Hip 0.000000 0.000000 0.000000 0.000000 0.000000 0.000000 10.000000 
R_Hip 0.000000 0.000000 0.000000 0.000000 0.000000 0.000000 10.000000 
Rear_Leg01 0.000000 0.000000 0.000000 0.000000 0.000000 0.000000 10.000000 
Spine1 0.000000 0.000000 0.000000 0.000000 0.000000 0.000000 10.000000 
L_Leg01 0.000000 0.000000 0.000000 0.000000 0.000000 0.000000 10.000000 
L_Leg02 0.000000 0.000000 0.000000 0.000000 0.000000 0.000000 10.000000 
L_Leg03 0.000000 0.000000 0.000000 0.000000 0.000000 0.000000 10.000000 
L_Foot 0.000000 0.000000 0.000000 0.000000 0.000000 0.000000 10.000000 
L_Toe1_01 0.000000 0.000000 0.000000 0.000000 0.000000 0.000000 10.000000 
L_Toe2_01 0.000000 0.000000 0.000000 0.000000 0.000000 0.000000 10.000000 
L_Toe3_01 0.000000 0.000000 0.000000 0.000000 0.000000 0.000000 10.000000 
planeAlignerLeft 0.000000 0.000000 0.000000 0.000000 0.000000 0.000000 10.000000 
L_Toe1_02 0.000000 0.000000 0.000000 0.000000 0.000000 0.000000 10.000000 
L_Toe1_03 0.000000 0.000000 0.000000 0.000000 0.000000 0.000000 10.000000 
L_Toe2_02 0.000000 0.000000 0.000000 0.000000 0.000000 0.000000 10.000000 
L_Toe2_03 0.000000 0.000000 0.000000 0.000000 0.000000 0.000000 10.000000 
L_Toe3_02 0.000000 0.000000 0.000000 0.000000 0.000000 0.000000 10.000000 
L_Toe3_03 0.000000 0.000000 0.000000 0.000000 0.000000 0.000000 10.000000 
planeLockWeightLeft 0.000000 0.000000 0.000000 0.000000 0.000000 0.000000 10.000000 
R_Leg01 0.000000 0.000000 0.000000 0.000000 0.000000 0.000000 10.000000 
R_Leg02 0.000000 0.000000 0.000000 0.000000 0.000000 0.000000 10.000000 
R_Leg03 0.000000 0.000000 0.000000 0.000000 0.000000 0.000000 10.000000 
R_Foot 0.000000 0.000000 0.000000 0.000000 0.000000 0.000000 10.000000 
planeAlignerRight 0.000000 0.000000 0.000000 0.000000 0.000000 0.000000 10.000000 
R_Toe1_01 0.000000 0.000000 0.000000 0.000000 0.000000 0.000000 10.000000 
R_Toe2_01 0.000000 0.000000 0.000000 0.000000 0.000000 0.000000 10.000000 
R_Toe3_01 0.000000 0.000000 0.000000 0.000000 0.000000 0.000000 10.000000 
planeLockWeightRight 0.000000 0.000000 0.000000 0.000000 0.000000 0.000000 10.000000 
R_Toe1_02 0.000000 0.000000 0.000000 0.000000 0.000000 0.000000 10.000000 
R_Toe1_03 0.000000 0.000000 0.000000 0.000000 0.000000 0.000000 10.000000 
R_Toe2_02 0.000000 0.000000 0.000000 0.000000 0.000000 0.000000 10.000000 
R_Toe2_03 0.000000 0.000000 0.000000 0.000000 0.000000 0.000000 10.000000 
R_Toe3_02 0.000000 0.000000 0.000000 0.000000 0.000000 0.000000 10.000000 
R_Toe3_03 0.000000 0.000000 0.000000 0.000000 0.000000 0.000000 10.000000 
Rear_Leg02 0.000000 0.000000 0.000000 0.000000 0.000000 0.000000 10.000000 
Rear_Leg03 0.000000 0.000000 0.000000 0.000000 0.000000 0.000000 10.000000 
Rear_Leg04 0.000000 0.000000 0.000000 0.000000 0.000000 0.000000 10.000000 
Rear_Foot 0.000000 0.000000 0.000000 0.000000 0.000000 0.000000 10.000000 
planeAlignerCenter 0.000000 0.000000 0.000000 0.000000 0.000000 0.000000 10.000000 
Rear_Toe1_01 0.000000 0.000000 0.000000 0.000000 0.000000 0.000000 10.000000 
Rear_Toe2_01 0.000000 0.000000 0.000000 0.000000 0.000000 0.000000 10.000000 
Rear_Toe3_01 0.000000 0.000000 0.000000 0.000000 0.000000 0.000000 10.000000 
planeLockWeightCenter 0.000000 0.000000 0.000000 0.000000 0.000000 0.000000 10.000000 
Rear_Toe1_02 0.000000 0.000000 0.000000 0.000000 0.000000 0.000000 10.000000 
Rear_Toe1_03 0.000000 0.000000 0.000000 0.000000 0.000000 0.000000 10.000000 
Rear_Toe2_02 0.000000 0.000000 0.000000 0.000000 0.000000 0.000000 10.000000 
Rear_Toe2_03 0.000000 0.000000 0.000000 0.000000 0.000000 0.000000 10.000000 
Rear_Toe3_02 0.000000 0.000000 0.000000 0.000000 0.000000 0.000000 10.000000 
Rear_Toe3_03 0.000000 0.000000 0.000000 0.000000 0.000000 0.000000 10.000000 
Back_Bone 0.000000 0.000000 0.000000 0.000000 0.000000 0.000000 10.000000 
Head 0.000000 0.000000 0.000000 0.000000 0.000000 0.000000 10.000000 
Motor_Bone 0.000000 0.000000 0.000000 0.000000 0.000000 0.000000 10.000000 
Ping_Mechanism 0.000000 0.000000 0.000000 0.000000 0.000000 0.000000 10.000000 
BN_LookIK 0.000000 0.000000 0.000000 0.000000 0.000000 0.000000 10.000000 
bottomMouth 0.000000 0.000000 0.000000 0.000000 0.000000 0.000000 10.000000 
L_Mouth01 0.000000 0.000000 0.000000 0.000000 0.000000 0.000000 10.000000 
L_mouthFront 0.000000 0.000000 0.000000 0.000000 0.000000 0.000000 10.000000 
mouthGun 0.000000 0.000000 0.000000 0.000000 0.000000 0.000000 10.000000 
R_Mouth01 0.000000 0.000000 0.000000 0.000000 0.000000 0.000000 10.000000 
R_mouthFront 0.000000 0.000000 0.000000 0.000000 0.000000 0.000000 10.000000 
TopMouth 0.000000 0.000000 0.000000 0.000000 0.000000 0.000000 10.000000 
weapon_bone 0.000000 0.000000 0.000000 0.000000 0.000000 0.000000 10.000000 
#Beginning of Data. Separated by tabs
#Fr	Tx	Ty	Tz	Rx	Ry	Rz	SF
[Pinger_Root]
28 0.000000 0.000000 0.000000 -0.000075 -0.000000 -0.000020 0.000000
29 0.000000 0.000000 0.000000 -0.000075 -0.000000 -0.000020 0.000000
30 0.000000 0.000000 0.000000 -0.000075 -0.000000 -0.000020 0.000000
[Pelvis]
28 -1044.636475 -998.688538 5739.208008 -142.177048 -84.862488 136.694077 5918.374512
29 -836.057312 -810.657104 5592.966797 -82.645546 -83.677185 79.025742 5712.918457
30 -581.667664 -616.759155 5229.584473 -60.956264 -76.986015 59.423923 5297.856934
[L_Hip]
28 5.766392 125.831482 872.656799 160.158691 -45.484905 122.312202 881.701050
29 5.766392 125.831482 872.656799 -174.900284 -48.537937 88.679062 881.701050
30 5.766392 125.831482 872.656799 -152.293716 -41.845760 57.261154 881.701050
[R_Hip]
28 5.765438 125.836372 -872.654907 38.087841 49.812687 125.703735 881.699829
29 5.765438 125.836372 -872.654907 38.087845 49.812691 125.703735 881.699829
30 5.765438 125.836372 -872.654907 38.087841 49.812687 125.703735 881.699829
[Rear_Leg01]
28 -192.298416 -925.602966 -0.001907 -162.828339 -4.020939 -145.441818 945.367432
29 -192.298416 -925.602966 -0.001907 -159.159958 -3.408831 -146.358765 945.367432
30 -192.298416 -925.602966 -0.001907 -155.364044 -3.205706 -148.534195 945.367432
[Spine1]
28 290.604584 5.007505 0.000477 1.343290 -3.712938 1.205209 290.647736
29 290.604584 5.007505 0.000477 0.424534 -3.535214 -2.955846 290.647736
30 290.604584 5.007505 0.000477 -1.437439 -5.165258 -8.472113 290.647736
[L_Leg01]
28 761.932007 -0.002384 -0.069261 37.623859 -11.815393 -25.767403 761.932068
29 761.932007 -0.002384 -0.069261 33.387806 -3.365354 -48.046101 761.932068
30 761.932007 -0.002384 -0.069261 11.771306 -2.067825 -92.820732 761.932068
[L_Leg02]
28 1441.140503 -0.000954 -0.000715 2.325659 -0.018464 -82.768608 1441.140503
29 1441.140503 -0.000954 -0.000715 6.432665 6.985407 -111.316078 1441.140503
30 1441.140503 -0.000954 -0.000715 -1.572388 -1.073809 -46.290325 1441.140503
[L_Leg03]
28 1686.963989 -0.000715 -0.000954 -0.057647 0.029926 126.280693 1686.963989
29 1686.963989 -0.000715 -0.000954 -0.182996 0.136954 160.115509 1686.963989
30 1686.963989 -0.000715 -0.000954 -0.147371 0.096793 149.772003 1686.963989
[L_Foot]
28 3041.570068 -30.715107 11.297464 -10.130277 15.537630 22.504377 3041.746094
29 3041.570068 -30.715107 11.297464 -2.186083 21.618153 60.403263 3041.746094
30 3041.570068 -30.715107 11.297464 -20.392214 15.829609 57.448120 3041.746094
[L_Toe1_01]
28 -188.216690 -224.732346 -21.137953 93.530258 -13.868440 -154.593613 293.899567
29 -188.216690 -224.732346 -21.137953 93.330994 -9.577385 -161.484451 293.899567
30 -188.216690 -224.732346 -21.137953 93.236259 -6.591859 -165.747833 293.899567
[L_Toe2_01]
28 200.746536 -219.926590 148.838394 -76.749985 -23.744869 -86.068680 332.896027
29 200.746536 -219.926590 148.838394 -65.439331 -27.033890 -80.174538 332.896027
30 200.746536 -219.926590 148.838394 -54.630920 -34.265934 -73.067482 332.896027
[L_Toe3_01]
28 188.832520 -219.859131 -191.078659 -91.330208 -15.885547 -95.747108 347.140900
29 188.832520 -219.859131 -191.078659 -109.977203 -7.511425 -88.417351 347.140900
30 188.832520 -219.859131 -191.078659 -127.762840 5.935113 -83.388603 347.140900
[planeAlignerLeft]
28 66.067070 -662.028992 600.067322 169.306686 -76.298271 89.968506 895.950867
29 88.768799 -566.832092 495.431183 169.306686 -76.298271 89.968506 758.043884
30 83.980125 -508.901886 404.763702 169.306686 -76.298271 89.968506 655.642761
[L_Toe1_02]
28 413.761139 0.000477 0.000000 0.001464 -16.619667 0.001464 413.761139
29 413.761139 0.000477 0.000000 0.001446 -18.541374 0.001446 413.761139
30 413.761139 0.000477 0.000000 0.001420 -21.459221 0.001420 413.761139
[L_Toe1_03]
28 464.317322 0.000358 -0.000089 -179.995987 78.573837 -179.992462 464.317322
29 464.317322 0.000358 -0.000089 -179.989563 84.597496 -179.986053 464.317322
30 464.317322 0.000358 -0.000089 0.027084 85.032875 0.027084 464.317322
[L_Toe2_02]
28 342.235809 -0.000477 0.000238 -0.002391 -62.596405 -0.002391 342.235809
29 342.235809 -0.000477 0.000238 0.001185 -73.985115 0.001185 342.235809
30 342.235809 -0.000477 0.000238 0.001180 -78.071907 0.001180 342.235809
[L_Toe2_03]
28 420.210846 -0.000715 0.000000 -0.000892 65.252731 -0.004472 420.210846
29 420.210846 -0.000715 0.000000 0.000000 89.682861 0.003493 420.210846
30 420.210846 -0.000715 0.000000 -179.997131 75.745834 -179.993607 420.210846
[L_Toe3_02]
28 329.270111 0.000954 0.000000 0.001189 -71.796349 0.001189 329.270111
29 329.270111 0.000954 0.000000 0.001177 -81.299118 0.001177 329.270111
30 329.270111 0.000954 0.000000 -0.027699 -83.454765 0.033553 329.270111
[L_Toe3_03]
28 439.137451 -0.001907 0.000954 0.010503 77.168510 0.010503 439.137451
29 439.137451 -0.001907 0.000954 -179.997284 75.226799 -179.993759 439.137451
30 439.137451 -0.001907 0.000954 179.991333 63.232491 179.998535 439.137451
[planeLockWeightLeft]
28 0.000000 -0.000114 -0.000257 -0.011826 -0.004376 0.005620 0.000282
29 0.000000 -0.000153 -0.000267 -0.011826 -0.004376 0.005620 0.000308
30 0.000000 -0.000191 -0.000277 -0.011826 -0.004376 0.005620 0.000336
[R_Leg01]
28 761.455627 -0.001907 -0.000358 166.692566 -40.780407 -24.623552 761.455688
29 761.455627 -0.001907 -0.000358 150.712143 -21.931381 11.552049 761.455688
30 761.455627 -0.001907 -0.000358 148.314972 -19.097971 8.337349 761.455688
[R_Leg02]
28 1441.140625 0.000000 -0.000238 -0.127417 -0.007280 -129.423218 1441.140625
29 1441.140625 0.000000 -0.000238 0.213231 0.034504 -80.902542 1441.140625
30 1441.140625 0.000000 -0.000238 0.244406 0.061036 -56.836418 1441.140625
[R_Leg03]
28 1686.963989 0.000954 0.001431 -0.021489 0.006335 104.892097 1686.963989
29 1686.963989 0.000954 0.001431 -0.049494 0.013102 96.009491 1686.963989
30 1686.963989 0.000954 0.001431 -0.129148 0.007776 75.077080 1686.963989
[R_Foot]
28 3041.560059 -30.531288 -11.204481 -6.817610 -21.457956 60.122166 3041.734131
29 3041.560059 -30.531288 -11.204481 -9.667416 -7.403051 45.752937 3041.734131
30 3041.560059 -30.531288 -11.204481 -10.582596 8.848654 34.216377 3041.734131
[planeAlignerRight]
28 590.946960 -334.211456 -213.891144 -36.599926 -71.361107 -12.759902 711.804077
29 349.651337 -680.409790 -314.143555 -30.235144 -68.229042 -44.512486 826.982300
30 -86.023178 -862.860413 -462.466003 -25.447472 -64.905502 -74.689819 982.752747
[R_Toe1_01]
28 -188.383347 -224.864899 21.052242 76.733688 -21.727131 -160.292770 294.101532
29 -188.383347 -224.864899 21.052242 69.101204 -1.797650 -161.639633 294.101532
30 -188.383347 -224.864899 21.052242 72.460510 24.524738 -152.022400 294.101532
[R_Toe2_01]
28 200.637817 -220.002121 -148.787384 -143.906097 17.196117 -109.982811 332.857574
29 200.637817 -220.002121 -148.787384 -141.010208 29.108355 -110.288864 332.857574
30 200.637817 -220.002121 -148.787384 -112.604507 33.823269 -91.161140 332.857574
[R_Toe3_01]
28 188.606735 -220.092957 191.126343 -45.433971 14.685773 -101.569771 347.192566
29 188.606735 -220.092957 191.126343 -51.037365 16.400293 -101.585060 347.192566
30 188.606735 -220.092957 191.126343 -67.640800 15.012297 -96.224854 347.192566
[planeLockWeightRight]
28 0.000000 0.000000 0.000000 -0.011823 -0.004379 -0.000027 0.000000
29 0.000000 0.000000 0.000000 -0.011823 -0.004379 -0.000027 0.000000
30 999.993958 0.000305 -0.000372 -0.011823 -0.004379 -0.000027 999.993958
[R_Toe1_02]
28 413.762085 0.000477 -0.000119 0.001459 -17.079586 0.001459 413.762085
29 413.762085 0.000477 -0.000119 0.001446 -18.536367 0.001446 413.762085
30 413.762085 0.000477 -0.000119 0.001421 -21.323324 0.001421 413.762085
[R_Toe1_03]
28 464.317810 0.000000 0.001088 -179.995209 79.922134 -179.991699 464.317810
29 464.317810 0.000000 0.001088 -179.989700 84.537292 -179.986191 464.317810
30 464.317810 0.000000 0.001088 0.000927 27.867886 -0.003155 464.317810
[R_Toe2_02]
28 342.234741 -0.000954 0.000238 0.001312 -36.962238 0.001312 342.234741
29 342.234741 -0.000954 0.000238 -0.002337 -77.683891 -0.002337 342.234741
30 342.234741 -0.000954 0.000238 -0.002339 -76.665428 -0.002339 342.234741
[R_Toe2_03]
28 420.210846 0.000715 -0.000268 -0.001550 32.462784 0.006428 420.210846
29 420.210846 0.000715 -0.000268 -179.993286 76.695282 -179.996796 420.210846
30 420.210846 0.000715 -0.000268 -179.990936 80.984474 -179.994446 420.210846
[R_Toe3_02]
28 329.270355 -0.000477 -0.000954 -0.002499 -46.734177 -0.002499 329.270355
29 329.270355 -0.000477 -0.000954 0.001179 -78.882790 0.001179 329.270355
30 329.270355 -0.000477 -0.000954 0.001192 -69.975281 0.001192 329.270355
[R_Toe3_03]
28 439.137939 0.000238 0.001431 0.006645 40.283260 -0.001062 439.137939
29 439.137939 0.000238 0.001431 -179.990158 84.317314 -179.986664 439.137939
30 439.137939 0.000238 0.001431 0.008128 73.396187 0.008128 439.137939
[Rear_Leg02]
28 1162.777710 -0.029802 0.005960 -0.991056 -1.885615 -43.214012 1162.777710
29 1162.777710 -0.029802 0.005960 -2.908666 -5.736280 -43.991505 1162.777710
30 1162.777710 -0.029802 0.005960 -3.287069 -10.285745 -52.998859 1162.777710
[Rear_Leg03]
28 607.192505 -0.013351 -0.073195 0.008703 0.003392 47.417320 607.192505
29 607.192505 -0.013351 -0.073195 0.008717 0.003356 47.887657 607.192505
30 607.192505 -0.013351 -0.073195 0.008843 0.003008 52.425564 607.192505
[Rear_Leg04]
28 995.874512 -0.020504 -0.011921 -0.032984 -0.015134 29.634098 995.874573
29 995.874512 -0.020504 -0.011921 -0.033075 -0.014934 30.325251 995.874573
30 995.874512 -0.020504 -0.011921 -0.035509 -0.017580 37.320259 995.874573
[Rear_Foot]
28 3096.176270 -0.067472 -0.041425 -10.785414 78.457642 159.262939 3096.176270
29 3096.176270 -0.067472 -0.041425 -34.648842 78.703819 138.488434 3096.176270
30 3096.176270 -0.067472 -0.041425 -59.228920 77.644730 115.944717 3096.176270
[planeAlignerCenter]
28 65.031456 -124.868469 -608.964050 12.240772 -0.001473 179.998184 625.026733
29 65.032013 -124.868164 -608.960327 12.240769 -0.001473 179.998184 625.023132
30 65.032578 -124.867859 -608.956665 12.240769 -0.001473 179.998184 625.019592
[Rear_Toe1_01]
28 0.653352 83.966492 -371.173737 -1.895059 27.184156 86.407394 380.553192
29 0.653352 83.966492 -371.173737 -1.895543 27.183693 86.407181 380.553192
30 0.653352 83.966492 -371.173737 -1.896027 27.183228 86.406975 380.553192
[Rear_Toe2_01]
28 178.200760 -294.826019 -362.060547 -8.148154 22.076632 -65.758224 499.765686
29 178.200760 -294.826019 -362.060547 -8.148154 22.076632 -65.758224 499.765686
30 178.200760 -294.826019 -362.060547 -8.148154 22.076632 -65.758224 499.765686
[Rear_Toe3_01]
28 -153.359680 -308.780914 -362.060852 4.062057 22.999210 -107.228783 499.952881
29 -153.359680 -308.780914 -362.060852 4.062057 22.999210 -107.228783 499.952881
30 -153.359680 -308.780914 -362.060852 4.062057 22.999210 -107.228783 499.952881
[planeLockWeightCenter]
28 1000.000488 0.000305 -0.000088 -0.011814 -0.004373 -0.000015 1000.000488
29 1000.000488 0.000305 -0.000080 -0.011814 -0.004373 -0.000015 1000.000488
30 1000.000488 0.000305 -0.000072 -0.011814 -0.004373 -0.000015 1000.000488
[Rear_Toe1_02]
28 379.707825 0.194073 0.000477 -0.002648 -32.673607 -0.002648 379.707855
29 379.707825 0.194073 0.000477 -0.002648 -32.661579 -0.002648 379.707855
30 379.707825 0.194073 0.000477 -0.002648 -32.649551 -0.002648 379.707855
[Rear_Toe1_03]
28 500.129700 0.165701 0.000119 -179.939240 88.883904 -179.942734 500.129761
29 500.129700 0.165701 0.000119 -179.939240 88.883904 -179.942734 500.129761
30 500.129700 0.165701 0.000119 -179.939240 88.883904 -179.942734 500.129761
[Rear_Toe2_02]
28 340.494507 0.000238 -0.000954 0.001241 -51.937317 0.001241 340.494507
29 340.494507 0.000238 -0.000954 0.001241 -51.937305 0.001241 340.494507
30 340.494507 0.000238 -0.000954 0.001241 -51.937305 0.001241 340.494507
[Rear_Toe2_03]
28 433.103577 0.000000 0.000238 -0.001783 46.484493 0.001041 433.103546
29 433.103577 0.000000 0.000238 -0.002608 46.484493 0.000686 433.103546
30 433.103577 0.000000 0.000238 -0.003433 46.484493 0.000332 433.103546
[Rear_Toe3_02]
28 340.494141 -0.000358 -0.000477 -0.002419 -57.589703 -0.002419 340.494171
29 340.494141 -0.000358 -0.000477 -0.002419 -57.590435 -0.002419 340.494171
30 340.494141 -0.000358 -0.000477 -0.002419 -57.591145 -0.002419 340.494171
[Rear_Toe3_03]
28 433.103577 0.001431 -0.000238 0.000025 53.130695 -0.003660 433.103546
29 433.103577 0.001431 -0.000238 0.000025 53.131489 -0.003660 433.103546
30 433.103577 0.001431 -0.000238 0.000025 53.132275 -0.003660 433.103546
[Back_Bone]
28 1312.175781 -701.934692 0.000954 2.790756 -1.457651 -85.682381 1488.125488
29 1312.175781 -701.934692 0.000954 2.790756 -1.457651 -85.682373 1488.125488
30 1312.175781 -701.934692 0.000954 2.790756 -1.457651 -85.682373 1488.125488
[Head]
28 1406.159424 809.709290 0.001431 -1.623609 2.697531 7.613082 1622.625488
29 1406.159424 809.709290 0.001431 -1.623609 2.697531 7.613082 1622.625488
30 1406.159424 809.709290 0.001431 -1.623609 2.697531 7.613079 1622.625488
[Motor_Bone]
28 1158.364380 -417.834747 0.000477 3.394448 -1.301977 -115.970810 1231.419434
29 1158.364380 -417.834747 0.000477 3.394448 -1.301977 -115.970810 1231.419434
30 1158.364380 -417.834747 0.000477 3.394448 -1.301977 -115.970810 1231.419434
[Ping_Mechanism]
28 1230.935913 -437.991364 -19.794617 0.000103 -0.000053 82.120995 1306.687134
29 1247.074707 -434.818756 3.874909 0.000103 -0.000053 82.120995 1320.711060
30 1274.601318 -431.423950 28.622389 0.000103 -0.000053 82.120995 1345.939941
[BN_LookIK]
28 193.241119 1380.371704 -0.002861 0.000000 89.965736 -31.038179 1393.832153
29 193.241119 1380.371704 -0.002861 0.000000 89.965736 -31.038179 1393.832153
30 193.241119 1380.371704 -0.002861 0.000000 89.965736 -31.038179 1393.832153
[bottomMouth]
28 -435.092926 615.759399 -0.000954 -0.000022 0.000016 73.527184 753.966492
29 -435.092926 615.759399 -0.000954 -0.000022 0.000016 73.527184 753.966492
30 -435.092926 615.759399 -0.000954 -0.000022 0.000016 73.527184 753.966492
[L_Mouth01]
28 554.440979 7.658243 838.222046 150.204178 23.759130 109.605339 1005.027161
29 554.440979 7.658243 838.222046 150.204178 23.759130 109.605339 1005.027161
30 554.440979 7.658243 838.222046 150.204178 23.759130 109.605339 1005.027161
[L_mouthFront]
28 551.629089 934.514771 339.150421 0.000081 2.804060 79.119301 1136.941284
29 551.629089 934.514771 339.150421 0.000081 2.804060 79.119301 1136.941284
30 551.629089 934.514771 339.150421 0.000081 2.804060 79.119301 1136.941284
[mouthGun]
28 55.332661 1627.420898 0.000000 0.000023 0.000009 -11.038128 1628.361328
29 55.332661 1627.420898 0.000000 0.000023 0.000009 -11.038128 1628.361328
30 55.332661 1627.420898 0.000000 0.000023 0.000009 -11.038128 1628.361328
[R_Mouth01]
28 554.442383 7.659197 -838.223938 29.795891 -23.759109 109.605331 1005.029541
29 554.442383 7.659197 -838.223938 29.795891 -23.759109 109.605331 1005.029541
30 554.442383 7.659197 -838.223938 29.795891 -23.759109 109.605331 1005.029541
[R_mouthFront]
28 551.629089 934.514282 -339.151367 0.000029 -2.803930 79.119133 1136.941162
29 551.629089 934.514282 -339.151367 0.000029 -2.803930 79.119133 1136.941162
30 551.629089 934.514282 -339.151367 0.000029 -2.803930 79.119133 1136.941162
[TopMouth]
28 461.269867 -56.106091 -0.008583 -0.000059 -0.000268 92.025169 464.669525
29 461.269867 -56.106091 -0.008583 -0.000059 -0.000268 92.025169 464.669525
30 461.269867 -56.106091 -0.008583 -0.000059 -0.000268 92.025169 464.669525
[weapon_bone]
28 -987.239868 1448.372803 0.001431 0.000000 89.965736 -31.038221 1752.833740
29 -987.239868 1448.372803 0.001431 0.000000 89.965736 -31.038221 1752.833740
30 -987.239868 1448.372803 0.001431 0.000000 89.965736 -31.038221 1752.833740
